<?xml version="1.0" encoding="UTF-8" standalone="no"?>
<!DOCTYPE svg PUBLIC "-//W3C//DTD SVG 1.1//EN" "http://www.w3.org/Graphics/SVG/1.1/DTD/svg11.dtd">
<svg version="1.1" xmlns="http://www.w3.org/2000/svg" xmlns:xlink="http://www.w3.org/1999/xlink" preserveAspectRatio="xMidYMid meet" viewBox="0 0 640 640" width="640" height="640"><defs><path d="M293.63 30.44C293.63 40.62 284.79 48.89 273.9 48.89C263 48.89 254.16 40.62 254.16 30.44C254.16 20.26 263 11.99 273.9 11.99C284.79 11.99 293.63 20.26 293.63 30.44Z" id="eEtNsDNq4"></path><path d="M384.13 88.54C384.13 98.73 373.2 106.99 359.74 106.99C346.28 106.99 335.35 98.73 335.35 88.54C335.35 78.36 346.28 70.09 359.74 70.09C373.2 70.09 384.13 78.36 384.13 88.54Z" id="awaPhxIPW"></path><path d="M286.83 476.38C286.83 486.56 273.82 494.83 257.79 494.83C241.75 494.83 228.74 486.56 228.74 476.38C228.74 466.19 241.75 457.93 257.79 457.93C273.82 457.93 286.83 466.19 286.83 476.38Z" id="fHTBdtAp"></path><path d="M93.83 192.31C93.83 205.6 80.81 216.39 64.78 216.39C48.75 216.39 35.73 205.6 35.73 192.31C35.73 179.02 48.75 168.23 64.78 168.23C80.81 168.23 93.83 179.02 93.83 192.31Z" id="afKRWRMin"></path><path d="M557.13 370.2C557.13 380.38 548.29 388.65 537.4 388.65C526.5 388.65 517.66 380.38 517.66 370.2C517.66 360.02 526.5 351.75 537.4 351.75C548.29 351.75 557.13 360.02 557.13 370.2Z" id="b1x5fHpaRz"></path><path d="M232.36 142.24C232.36 152.42 223.52 160.69 212.63 160.69C201.73 160.69 192.89 152.42 192.89 142.24C192.89 132.06 201.73 123.79 212.63 123.79C223.52 123.79 232.36 132.06 232.36 142.24Z" id="bbJ9Oh6Ad"></path><path d="M341.12 232.43C341.12 245.71 328.1 256.5 312.07 256.5C296.04 256.5 283.02 245.71 283.02 232.43C283.02 219.14 296.04 208.35 312.07 208.35C328.1 208.35 341.12 219.14 341.12 232.43Z" id="g3icFCWfV"></path><path d="M279.85 291.59C279.85 301.77 266.83 310.04 250.8 310.04C234.77 310.04 221.75 301.77 221.75 291.59C221.75 281.4 234.77 273.14 250.8 273.14C266.83 273.14 279.85 281.4 279.85 291.59Z" id="c6dqTGhxq"></path><path d="M140.57 269.15C140.57 279.34 129.64 287.61 116.17 287.61C102.71 287.61 91.78 279.34 91.78 269.15C91.78 258.97 102.71 250.7 116.17 250.7C129.64 250.7 140.57 258.97 140.57 269.15Z" id="dCm7rdeyV"></path><path d="M58.25 525.34C58.25 538.62 47.32 549.41 33.86 549.41C20.39 549.41 9.47 538.62 9.47 525.34C9.47 512.05 20.39 501.26 33.86 501.26C47.32 501.26 58.25 512.05 58.25 525.34Z" id="b46cxK4mB"></path><path d="M320.55 298C320.55 304.64 314.52 310.04 307.09 310.04C299.66 310.04 293.63 304.64 293.63 298C293.63 291.35 299.66 285.96 307.09 285.96C314.52 285.96 320.55 291.35 320.55 298Z" id="h51HSyLC5J"></path><path d="M129.86 432.02C129.86 445.31 118.93 456.1 105.47 456.1C92 456.1 81.07 445.31 81.07 432.02C81.07 418.73 92 407.94 105.47 407.94C118.93 407.94 129.86 418.73 129.86 432.02Z" id="hobFLGjTt"></path><path d="M201.92 592.82C201.92 606.11 190.99 616.9 177.53 616.9C164.07 616.9 153.14 606.11 153.14 592.82C153.14 579.53 164.07 568.74 177.53 568.74C190.99 568.74 201.92 579.53 201.92 592.82Z" id="b75qxo8pX"></path><path d="M523.43 179.14C523.43 189.32 510.41 197.59 494.38 197.59C478.35 197.59 465.33 189.32 465.33 179.14C465.33 168.96 478.35 160.69 494.38 160.69C510.41 160.69 523.43 168.96 523.43 179.14Z" id="c2po9cS6Nw"></path><path d="M485.07 315.7C485.07 325.88 476.23 334.15 465.33 334.15C454.44 334.15 445.6 325.88 445.6 315.7C445.6 305.52 454.44 297.25 465.33 297.25C476.23 297.25 485.07 305.52 485.07 315.7Z" id="a89uwODsnu"></path><path d="M359.74 383.06C359.74 393.24 350.9 401.51 340 401.51C329.11 401.51 320.27 393.24 320.27 383.06C320.27 372.88 329.11 364.61 340 364.61C350.9 364.61 359.74 372.88 359.74 383.06Z" id="a18rQGr9od"></path><path d="M404.9 414.25C404.9 424.43 396.05 432.7 385.16 432.7C374.27 432.7 365.43 424.43 365.43 414.25C365.43 404.07 374.27 395.8 385.16 395.8C396.05 395.8 404.9 404.07 404.9 414.25Z" id="cd02UDOEj"></path><path d="M557.13 457.93C557.13 468.11 565.98 476.38 576.87 476.38C587.76 476.38 596.61 468.11 596.61 457.93C596.61 447.74 587.76 439.48 576.87 439.48C565.98 439.48 557.13 447.74 557.13 457.93Z" id="aMTURVRXH"></path><path d="M399.21 604.86C399.21 611.5 390.37 616.9 379.48 616.9C368.58 616.9 359.74 611.5 359.74 604.86C359.74 598.21 368.58 592.82 379.48 592.82C390.37 592.82 399.21 598.21 399.21 604.86Z" id="a39jFiQz62"></path><path d="M543.17 605.88C543.17 616.06 534.32 624.33 523.43 624.33C512.54 624.33 503.69 616.06 503.69 605.88C503.69 595.69 512.54 587.43 523.43 587.43C534.32 587.43 543.17 595.69 543.17 605.88Z" id="edtuZexdi"></path><path d="M445.6 555.82C445.6 562.47 439.57 567.86 432.14 567.86C424.71 567.86 418.68 562.47 418.68 555.82C418.68 549.18 424.71 543.79 432.14 543.79C439.57 543.79 445.6 549.18 445.6 555.82Z" id="a3psXcjkuK"></path><path d="M591.22 531.28C591.22 544.57 602.15 555.36 615.61 555.36C629.07 555.36 640 544.57 640 531.28C640 518 629.07 507.21 615.61 507.21C602.15 507.21 591.22 518 591.22 531.28Z" id="a3wzxvlLRp"></path></defs><g><g><g><use xlink:href="#eEtNsDNq4" opacity="1" fill="#f8f9fa" fill-opacity="1"></use><g><use xlink:href="#eEtNsDNq4" opacity="1" fill-opacity="0" stroke="#585a5f" stroke-width="1" stroke-opacity="1"></use></g></g><g><use xlink:href="#awaPhxIPW" opacity="1" fill="#f8f9fa" fill-opacity="1"></use><g><use xlink:href="#awaPhxIPW" opacity="1" fill-opacity="0" stroke="#585a5f" stroke-width="1" stroke-opacity="1"></use></g></g><g><use xlink:href="#fHTBdtAp" opacity="1" fill="#f8f9fa" fill-opacity="1"></use><g><use xlink:href="#fHTBdtAp" opacity="1" fill-opacity="0" stroke="#585a5f" stroke-width="1" stroke-opacity="1"></use></g></g><g><use xlink:href="#afKRWRMin" opacity="1" fill="#f8f9fa" fill-opacity="1"></use><g><use xlink:href="#afKRWRMin" opacity="1" fill-opacity="0" stroke="#585a5f" stroke-width="1" stroke-opacity="1"></use></g></g><g><use xlink:href="#b1x5fHpaRz" opacity="1" fill="#f8f9fa" fill-opacity="1"></use><g><use xlink:href="#b1x5fHpaRz" opacity="1" fill-opacity="0" stroke="#585a5f" stroke-width="1" stroke-opacity="1"></use></g></g><g><use xlink:href="#bbJ9Oh6Ad" opacity="1" fill="#f8f9fa" fill-opacity="1"></use><g><use xlink:href="#bbJ9Oh6Ad" opacity="1" fill-opacity="0" stroke="#585a5f" stroke-width="1" stroke-opacity="1"></use></g></g><g><use xlink:href="#g3icFCWfV" opacity="1" fill="#f8f9fa" fill-opacity="1"></use><g><use xlink:href="#g3icFCWfV" opacity="1" fill-opacity="0" stroke="#585a5f" stroke-width="1" stroke-opacity="1"></use></g></g><g><use xlink:href="#c6dqTGhxq" opacity="1" fill="#f8f9fa" fill-opacity="1"></use><g><use xlink:href="#c6dqTGhxq" opacity="1" fill-opacity="0" stroke="#585a5f" stroke-width="1" stroke-opacity="1"></use></g></g><g><use xlink:href="#dCm7rdeyV" opacity="1" fill="#f8f9fa" fill-opacity="1"></use><g><use xlink:href="#dCm7rdeyV" opacity="1" fill-opacity="0" stroke="#585a5f" stroke-width="1" stroke-opacity="1"></use></g></g><g><use xlink:href="#b46cxK4mB" opacity="1" fill="#f8f9fa" fill-opacity="1"></use><g><use xlink:href="#b46cxK4mB" opacity="1" fill-opacity="0" stroke="#585a5f" stroke-width="1" stroke-opacity="1"></use></g></g><g><use xlink:href="#h51HSyLC5J" opacity="1" fill="#f8f9fa" fill-opacity="1"></use><g><use xlink:href="#h51HSyLC5J" opacity="1" fill-opacity="0" stroke="#585a5f" stroke-width="1" stroke-opacity="1"></use></g></g><g><use xlink:href="#hobFLGjTt" opacity="1" fill="#f8f9fa" fill-opacity="1"></use><g><use xlink:href="#hobFLGjTt" opacity="1" fill-opacity="0" stroke="#585a5f" stroke-width="1" stroke-opacity="1"></use></g></g><g><use xlink:href="#b75qxo8pX" opacity="1" fill="#f8f9fa" fill-opacity="1"></use><g><use xlink:href="#b75qxo8pX" opacity="1" fill-opacity="0" stroke="#585a5f" stroke-width="1" stroke-opacity="1"></use></g></g><g><use xlink:href="#c2po9cS6Nw" opacity="1" fill="#f8f9fa" fill-opacity="1"></use><g><use xlink:href="#c2po9cS6Nw" opacity="1" fill-opacity="0" stroke="#585a5f" stroke-width="1" stroke-opacity="1"></use></g></g><g><use xlink:href="#a89uwODsnu" opacity="1" fill="#f8f9fa" fill-opacity="1"></use><g><use xlink:href="#a89uwODsnu" opacity="1" fill-opacity="0" stroke="#585a5f" stroke-width="1" stroke-opacity="1"></use></g></g><g><use xlink:href="#a18rQGr9od" opacity="1" fill="#f8f9fa" fill-opacity="1"></use><g><use xlink:href="#a18rQGr9od" opacity="1" fill-opacity="0" stroke="#585a5f" stroke-width="1" stroke-opacity="1"></use></g></g><g><use xlink:href="#cd02UDOEj" opacity="1" fill="#f8f9fa" fill-opacity="1"></use><g><use xlink:href="#cd02UDOEj" opacity="1" fill-opacity="0" stroke="#585a5f" stroke-width="1" stroke-opacity="1"></use></g></g><g><use xlink:href="#aMTURVRXH" opacity="1" fill="#f8f9fa" fill-opacity="1"></use><g><use xlink:href="#aMTURVRXH" opacity="1" fill-opacity="0" stroke="#585a5f" stroke-width="1" stroke-opacity="1"></use></g></g><g><use xlink:href="#a39jFiQz62" opacity="1" fill="#f8f9fa" fill-opacity="1"></use><g><use xlink:href="#a39jFiQz62" opacity="1" fill-opacity="0" stroke="#585a5f" stroke-width="1" stroke-opacity="1"></use></g></g><g><use xlink:href="#edtuZexdi" opacity="1" fill="#f8f9fa" fill-opacity="1"></use><g><use xlink:href="#edtuZexdi" opacity="1" fill-opacity="0" stroke="#585a5f" stroke-width="1" stroke-opacity="1"></use></g></g><g><use xlink:href="#a3psXcjkuK" opacity="1" fill="#f8f9fa" fill-opacity="1"></use><g><use xlink:href="#a3psXcjkuK" opacity="1" fill-opacity="0" stroke="#585a5f" stroke-width="1" stroke-opacity="1"></use></g></g><g><use xlink:href="#a3wzxvlLRp" opacity="1" fill="#f8f9fa" fill-opacity="1"></use><g><use xlink:href="#a3wzxvlLRp" opacity="1" fill-opacity="0" stroke="#585a5f" stroke-width="1" stroke-opacity="1"></use></g></g></g></g></svg>